<?xml version="1.0" encoding="utf-8" ?>
<svg xmlns="http://www.w3.org/2000/svg" xmlns:ev="http://www.w3.org/2001/xml-events" xmlns:xlink="http://www.w3.org/1999/xlink" baseProfile="full" height="1080" version="1.1" viewBox="0 0 1920 1080" width="1920">
  <title>Cortex Plugins feature illustration</title>
  <defs>
    <style type="text/css"><![CDATA[
        .strong { fill:none; stroke:#17140f; stroke-width:2.45; stroke-linecap:round; stroke-linejoin:round; stroke-opacity:.76; vector-effect:non-scaling-stroke; }
        .main { fill:none; stroke:#17140f; stroke-width:2.05; stroke-linecap:round; stroke-linejoin:round; stroke-opacity:.58; vector-effect:non-scaling-stroke; }
        .muted { fill:none; stroke:#6b6459; stroke-width:1.65; stroke-linecap:round; stroke-linejoin:round; stroke-opacity:.58; vector-effect:non-scaling-stroke; }
        .faint { fill:none; stroke:#a69c8a; stroke-width:1.25; stroke-linecap:round; stroke-linejoin:round; stroke-opacity:.36; vector-effect:non-scaling-stroke; }
        .hair { fill:none; stroke:#d7cfbf; stroke-width:1.05; stroke-linecap:round; stroke-linejoin:round; stroke-opacity:.58; vector-effect:non-scaling-stroke; }
        .dash { fill:none; stroke:#6b6459; stroke-width:1.45; stroke-linecap:round; stroke-linejoin:round; stroke-opacity:.43; stroke-dasharray:5 11; vector-effect:non-scaling-stroke; }
        .dash-accent { fill:none; stroke:#875000; stroke-width:1.6; stroke-linecap:round; stroke-linejoin:round; stroke-opacity:.42; stroke-dasharray:5 10; vector-effect:non-scaling-stroke; }
        .accent { fill:none; stroke:#e3a12b; stroke-width:2.65; stroke-linecap:round; stroke-linejoin:round; stroke-opacity:.95; vector-effect:non-scaling-stroke; }
        .accent-thin { fill:none; stroke:#e3a12b; stroke-width:1.65; stroke-linecap:round; stroke-linejoin:round; stroke-opacity:.82; vector-effect:non-scaling-stroke; }
        .accent-border { fill:none; stroke:#875000; stroke-width:1.75; stroke-linecap:round; stroke-linejoin:round; stroke-opacity:.62; vector-effect:non-scaling-stroke; }
        .paper { fill:#fbf9f4; fill-opacity:.20; stroke:#17140f; stroke-width:2.05; stroke-linecap:round; stroke-linejoin:round; stroke-opacity:.50; vector-effect:non-scaling-stroke; }
        .paper-faint { fill:#f4f0e7; fill-opacity:.13; stroke:#a69c8a; stroke-width:1.35; stroke-linecap:round; stroke-linejoin:round; stroke-opacity:.44; vector-effect:non-scaling-stroke; }
        .subtle-fill { fill:#f7e5bf; fill-opacity:.30; stroke:#875000; stroke-width:1.55; stroke-linecap:round; stroke-linejoin:round; stroke-opacity:.38; vector-effect:non-scaling-stroke; }
        .accent-fill { fill:#e3a12b; fill-opacity:.20; stroke:#e3a12b; stroke-width:2.05; stroke-linecap:round; stroke-linejoin:round; stroke-opacity:.80; vector-effect:non-scaling-stroke; }
        .dark-fill { fill:#17140f; fill-opacity:.10; stroke:#17140f; stroke-width:2.0; stroke-linecap:round; stroke-linejoin:round; stroke-opacity:.52; vector-effect:non-scaling-stroke; }
        .dot { fill:#e3a12b; fill-opacity:.88; stroke:none; }
        .dot-border { fill:#875000; fill-opacity:.65; stroke:none; }
        .dot-muted { fill:#17140f; fill-opacity:.32; stroke:none; }
        .dot-faint { fill:#a69c8a; fill-opacity:.36; stroke:none; }
        .label { font-family: ui-monospace, SFMono-Regular, SF Mono, Menlo, Monaco, Consolas, monospace; fill:#17140f; fill-opacity:.56; font-size:32px; letter-spacing:1px; }
        .label-muted { font-family: ui-monospace, SFMono-Regular, SF Mono, Menlo, Monaco, Consolas, monospace; fill:#6b6459; fill-opacity:.52; font-size:24px; letter-spacing:1px; }
        .small-mono { font-family: ui-monospace, SFMono-Regular, SF Mono, Menlo, Monaco, Consolas, monospace; fill:#875000; fill-opacity:.62; font-size:22px; letter-spacing:1.4px; }
    ]]></style>
  </defs>
  <g id="plugins-v2">
    <ellipse class="hair" cx="960" cy="655" rx="510" ry="122"/>
    <circle class="paper" cx="960" cy="555" r="118"/>
    <circle class="faint" cx="960" cy="555" r="74"/>
    <line class="muted" x1="1050.0" x2="1094.0" y1="555.0" y2="555.0"/>
    <circle class="dot" cx="1094.0" cy="555.0" r="9"/>
    <line class="muted" x1="1005.0" x2="1027.0" y1="632.9422863405995" y2="671.0474041071147"/>
    <circle class="dot" cx="1027.0" cy="671.0474041071147" r="9"/>
    <line class="muted" x1="915.0" x2="893.0" y1="632.9422863405995" y2="671.0474041071147"/>
    <circle class="dot" cx="893.0" cy="671.0474041071147" r="9"/>
    <line class="muted" x1="870.0" x2="826.0" y1="555.0" y2="555.0"/>
    <circle class="dot" cx="826.0" cy="555.0" r="9"/>
    <line class="muted" x1="915.0" x2="893.0" y1="477.0577136594005" y2="438.95259589288526"/>
    <circle class="dot" cx="893.0" cy="438.95259589288526" r="9"/>
    <line class="muted" x1="1005.0" x2="1027.0" y1="477.0577136594005" y2="438.95259589288526"/>
    <circle class="dot" cx="1027.0" cy="438.95259589288526" r="9"/>
    <circle class="dot-border" cx="960" cy="555" r="16"/>
    <circle class="dot-muted" cx="989.698484809835" cy="584.698484809835" r="6"/>
    <circle class="dot-muted" cx="930.301515190165" cy="584.698484809835" r="6"/>
    <circle class="dot-muted" cx="930.301515190165" cy="525.301515190165" r="6"/>
    <circle class="dot-muted" cx="989.698484809835" cy="525.301515190165" r="6"/>
    <g transform="translate(670.0,455.0) rotate(-10)">
      <path class="paper" d="M -102.0 -85.0 L -19.200000000000003 -85.0 Q 0.0 -119.0 19.19999999999999 -85.0 L 102.0 -85.0 Q 120.0 -85.0 120.0 -67.0 L 120.0 -18.700000000000003 Q 162.0 0.0 120.0 18.700000000000003 L 120.0 67.0 Q 120.0 85.0 102.0 85.0 L 19.19999999999999 85.0 Q 0.0 119.0 -19.200000000000003 85.0 L -102.0 85.0 Q -120.0 85.0 -120.0 67.0 L -120.0 -67.0 L -120.0 -67.0 Q -120.0 -85.0 -102.0 -85.0 Z"/>
      <line class="muted" x1="-67.2" x2="52.2" y1="-45" y2="-45"/>
      <line class="faint" x1="-67.2" x2="67.2" y1="-10" y2="-10"/>
      <line class="muted" x1="-67.2" x2="52.2" y1="25" y2="25"/>
      <line class="faint" x1="-67.2" x2="67.2" y1="60" y2="60"/>
      <circle class="dot" cx="52.8" cy="-42.5" r="7"/>
      <circle class="dot-muted" cx="74.4" cy="-42.5" r="7"/>
    </g>
    <path class="dash" d="M 670.0 455.0 C 760.0 385.0, 760.0 560, 850 500"/>
    <g transform="translate(1252.5,438.0) rotate(8)">
      <path class="paper" d="M -104.5 -88.0 L -19.60000000000001 -88.0 Q 0.0 -122.0 19.599999999999994 -88.0 L 104.5 -88.0 Q 122.5 -88.0 122.5 -70.0 L 122.5 70.0 L 122.5 70.0 Q 122.5 88.0 104.5 88.0 L 19.599999999999994 88.0 Q 0.0 122.0 -19.60000000000001 88.0 L -104.5 88.0 Q -122.5 88.0 -122.5 70.0 L -122.5 19.36 Q -164.5 0.0 -122.5 -19.36 L -122.5 -70.0 Q -122.5 -88.0 -104.5 -88.0 Z"/>
      <line class="muted" x1="-68.60000000000001" x2="53.60000000000001" y1="-45" y2="-45"/>
      <line class="faint" x1="-68.60000000000001" x2="68.60000000000001" y1="-10" y2="-10"/>
      <line class="muted" x1="-68.60000000000001" x2="53.60000000000001" y1="25" y2="25"/>
      <line class="faint" x1="-68.60000000000001" x2="68.60000000000001" y1="60" y2="60"/>
      <circle class="dot" cx="53.9" cy="-44.0" r="7"/>
      <circle class="dot-muted" cx="75.95" cy="-44.0" r="7"/>
    </g>
    <path class="dash" d="M 1252.5 438.0 C 1162.25 368.0, 1162.25 565, 1072 505"/>
    <g transform="translate(777.5,809.0) rotate(5)">
      <path class="paper" d="M -109.5 -89.0 L -20.400000000000006 -89.0 Q 0.0 -123.0 20.399999999999977 -89.0 L 109.5 -89.0 Q 127.5 -89.0 127.5 -71.0 L 127.5 -19.58 Q 169.5 0.0 127.5 19.58 L 127.5 71.0 Q 127.5 89.0 109.5 89.0 L 20.399999999999977 89.0 Q 0.0 123.0 -20.400000000000006 89.0 L -109.5 89.0 Q -127.5 89.0 -127.5 71.0 L -127.5 -71.0 L -127.5 -71.0 Q -127.5 -89.0 -109.5 -89.0 Z"/>
      <line class="muted" x1="-71.4" x2="56.400000000000006" y1="-45" y2="-45"/>
      <line class="faint" x1="-71.4" x2="71.4" y1="-10" y2="-10"/>
      <line class="muted" x1="-71.4" x2="56.400000000000006" y1="25" y2="25"/>
      <line class="faint" x1="-71.4" x2="71.4" y1="60" y2="60"/>
      <circle class="dot" cx="56.1" cy="-44.5" r="7"/>
      <circle class="dot-muted" cx="79.05" cy="-44.5" r="7"/>
    </g>
    <path class="dash" d="M 777.5 809.0 C 823.75 739.0, 823.75 695, 870 635"/>
    <g transform="translate(1200.0,805.0) rotate(-8)">
      <path class="paper" d="M -112.0 -90.0 L -20.799999999999997 -90.0 Q 0.0 -124.0 20.799999999999983 -90.0 L 112.0 -90.0 Q 130.0 -90.0 130.0 -72.0 L 130.0 72.0 L 130.0 72.0 Q 130.0 90.0 112.0 90.0 L 20.799999999999983 90.0 Q 0.0 124.0 -20.799999999999997 90.0 L -112.0 90.0 Q -130.0 90.0 -130.0 72.0 L -130.0 19.799999999999997 Q -172.0 0.0 -130.0 -19.799999999999997 L -130.0 -72.0 Q -130.0 -90.0 -112.0 -90.0 Z"/>
      <line class="muted" x1="-72.80000000000001" x2="57.80000000000001" y1="-45" y2="-45"/>
      <line class="faint" x1="-72.80000000000001" x2="72.80000000000001" y1="-10" y2="-10"/>
      <line class="muted" x1="-72.80000000000001" x2="57.80000000000001" y1="25" y2="25"/>
      <line class="faint" x1="-72.80000000000001" x2="72.80000000000001" y1="60" y2="60"/>
      <circle class="dot" cx="57.2" cy="-45.0" r="7"/>
      <circle class="dot-muted" cx="80.6" cy="-45.0" r="7"/>
    </g>
    <path class="dash" d="M 1200.0 805.0 C 1127.5 735.0, 1127.5 700, 1055 640"/>
    <line class="accent" x1="760" x2="850" y1="572" y2="572"/>
    <line class="accent" x1="760" x2="852" y1="596" y2="596"/>
    <polyline class="accent-thin" points="842,552 882,584 842,616"/>
    <line class="accent" x1="1076" x2="1160" y1="536" y2="488"/>
    <line class="accent" x1="1088" x2="1175" y1="560" y2="513"/>
    <line class="dash-accent" x1="790" x2="890" y1="250" y2="220"/>
    <line class="dash-accent" x1="890" x2="1000" y1="220" y2="235"/>
    <line class="dash-accent" x1="1000" x2="1115" y1="235" y2="210"/>
    <line class="dash-accent" x1="1115" x2="1225" y1="210" y2="252"/>
    <circle class="paper-faint" cx="790" cy="250" r="13"/>
    <circle class="dot" cx="790" cy="250" r="4"/>
    <circle class="subtle-fill" cx="890" cy="220" r="13"/>
    <circle class="dot" cx="890" cy="220" r="4"/>
    <circle class="paper-faint" cx="1000" cy="235" r="13"/>
    <circle class="dot" cx="1000" cy="235" r="4"/>
    <circle class="subtle-fill" cx="1115" cy="210" r="13"/>
    <circle class="dot" cx="1115" cy="210" r="4"/>
    <circle class="paper-faint" cx="1225" cy="252" r="13"/>
    <circle class="dot" cx="1225" cy="252" r="4"/>
    <line class="accent-thin" x1="502" x2="538" y1="665" y2="665"/>
    <line class="accent-thin" x1="520" x2="520" y1="647" y2="683"/>
    <line class="accent-thin" x1="1342" x2="1378" y1="640" y2="640"/>
    <line class="accent-thin" x1="1360" x2="1360" y1="622" y2="658"/>
    <line class="accent-thin" x1="957" x2="993" y1="775" y2="775"/>
    <line class="accent-thin" x1="975" x2="975" y1="757" y2="793"/>
  </g>
</svg>
