<svg xmlns="http://www.w3.org/2000/svg" width="1600" height="1000" viewBox="0 0 1600 1000" fill="none">
	<title>Cortex workspace with Markdown editing and preview</title>
	<rect width="1600" height="1000" fill="#E9E2D4"/>
	<rect x="64" y="56" width="1472" height="888" rx="18" fill="#FBF9F4" stroke="#A69C8A" stroke-width="2"/>
	<rect x="64" y="56" width="292" height="888" rx="18" fill="#DFD7C8"/>
	<path d="M356 56V944" stroke="#A69C8A" stroke-width="2"/>
	<circle cx="104" cy="96" r="9" fill="#E06C55"/>
	<circle cx="132" cy="96" r="9" fill="#E3A12B"/>
	<circle cx="160" cy="96" r="9" fill="#6EA85D"/>
	<rect x="104" y="150" width="178" height="22" rx="11" fill="#332F27"/>
	<rect x="104" y="206" width="204" height="42" rx="10" fill="#F7E5BF"/>
	<rect x="130" y="222" width="88" height="10" rx="5" fill="#6F4200"/>
	<rect x="104" y="270" width="168" height="12" rx="6" fill="#6B6459"/>
	<rect x="104" y="314" width="134" height="12" rx="6" fill="#6B6459"/>
	<rect x="104" y="358" width="156" height="12" rx="6" fill="#6B6459"/>
	<rect x="104" y="438" width="96" height="12" rx="6" fill="#332F27"/>
	<rect x="104" y="484" width="210" height="14" rx="7" fill="#A69C8A"/>
	<rect x="104" y="526" width="184" height="14" rx="7" fill="#A69C8A"/>
	<rect x="104" y="568" width="218" height="14" rx="7" fill="#A69C8A"/>
	<rect x="104" y="610" width="154" height="14" rx="7" fill="#A69C8A"/>
	<rect x="400" y="94" width="242" height="48" rx="12" fill="#FBF9F4" stroke="#D7CFBF" stroke-width="2"/>
	<rect x="424" y="111" width="172" height="14" rx="7" fill="#332F27"/>
	<path d="M400 142H642" stroke="#E3A12B" stroke-width="4" stroke-linecap="round"/>
	<rect x="400" y="190" width="526" height="700" rx="16" fill="#F4F0E7" stroke="#D7CFBF" stroke-width="2"/>
	<rect x="984" y="190" width="472" height="700" rx="16" fill="#FBF9F4" stroke="#D7CFBF" stroke-width="2"/>
	<rect x="440" y="238" width="158" height="16" rx="8" fill="#E3A12B"/>
	<rect x="440" y="292" width="388" height="30" rx="8" fill="#17140F"/>
	<rect x="440" y="354" width="424" height="14" rx="7" fill="#6B6459"/>
	<rect x="440" y="392" width="332" height="14" rx="7" fill="#A69C8A"/>
	<rect x="440" y="430" width="380" height="14" rx="7" fill="#A69C8A"/>
	<rect x="440" y="500" width="184" height="14" rx="7" fill="#E3A12B"/>
	<rect x="440" y="538" width="408" height="14" rx="7" fill="#6B6459"/>
	<rect x="440" y="576" width="352" height="14" rx="7" fill="#A69C8A"/>
	<rect x="440" y="648" width="386" height="132" rx="14" fill="#FBF9F4" stroke="#D7CFBF" stroke-width="2"/>
	<rect x="480" y="690" width="234" height="12" rx="6" fill="#6B6459"/>
	<rect x="480" y="724" width="278" height="12" rx="6" fill="#A69C8A"/>
	<rect x="1028" y="238" width="156" height="16" rx="8" fill="#E3A12B"/>
	<rect x="1028" y="298" width="300" height="32" rx="8" fill="#17140F"/>
	<rect x="1028" y="364" width="356" height="14" rx="7" fill="#6B6459"/>
	<rect x="1028" y="402" width="300" height="14" rx="7" fill="#A69C8A"/>
	<rect x="1028" y="440" width="332" height="14" rx="7" fill="#A69C8A"/>
	<rect x="1028" y="528" width="334" height="160" rx="14" fill="#F4F0E7" stroke="#D7CFBF" stroke-width="2"/>
	<rect x="1064" y="574" width="122" height="12" rx="6" fill="#E3A12B"/>
	<rect x="1064" y="612" width="236" height="12" rx="6" fill="#6B6459"/>
	<rect x="1064" y="648" width="206" height="12" rx="6" fill="#A69C8A"/>
	<rect x="1028" y="734" width="118" height="34" rx="17" fill="#F7E5BF" stroke="#E3A12B" stroke-width="2"/>
	<rect x="1162" y="734" width="150" height="34" rx="17" fill="#F4F0E7" stroke="#D7CFBF" stroke-width="2"/>
	<rect x="1328" y="734" width="84" height="34" rx="17" fill="#F4F0E7" stroke="#D7CFBF" stroke-width="2"/>
	<circle cx="902" cy="842" r="10" fill="#E3A12B"/>
	<circle cx="1368" cy="842" r="10" fill="#E3A12B"/>
</svg>
